<?xml version="1.0" encoding="UTF-8"?>
<svg width="168px" height="29px" viewBox="0 0 168 29" version="1.1" xmlns="http://www.w3.org/2000/svg" xmlns:xlink="http://www.w3.org/1999/xlink">
    <!-- Generator: Sketch 63.1 (92452) - https://sketch.com -->
    <title>Page 6</title>
    <desc>Created with Sketch.</desc>
    <g id="Page-6" stroke="none" stroke-width="1" fill="none" fill-rule="evenodd">
        <g id="icons8-circled_down" transform="translate(71.373000, 4.816000)" fill="#FFFFFF" fill-rule="nonzero">
            <path d="M12,24 C18.627,24 24,18.627 24,12 C24,5.373 18.627,0 12,0 C5.373,0 0,5.373 0,12 C0,18.627 5.373,24 12,24 Z M13,5 L13,14.651 L17.276,10.375 L18.973,12.072 L12,19.046 L5.026,12.072 L6.723,10.375 L11,14.651 L11,5 L13,5 Z" id="Shape"></path>
        </g>
        <path d="M9.24,25.212 C11.913,25.212 14.058,24.519 15.708,23.133 C17.358,21.747 18.183,19.965 18.183,17.787 C18.183,15.081 16.797,13.068 14.025,11.715 C13.398,11.418 12.408,10.989 11.055,10.428 L8.646,9.372 C7.326,8.712 6.666,7.92 6.666,6.963 C6.666,5.544 7.854,4.62 9.801,4.62 C11.616,4.62 13.794,5.445 15.147,6.897 L17.754,3.333 C15.576,1.122 12.903,0.033 9.735,0.033 C7.293,0.033 5.28,0.726 3.729,2.079 C2.178,3.432 1.419,5.115 1.419,7.161 C1.419,9.735 2.706,11.748 5.28,13.233 C5.94,13.596 6.897,14.058 8.151,14.553 C9.438,15.048 10.23,15.345 10.56,15.51 C12.045,16.203 12.771,17.061 12.771,18.051 C12.771,19.602 11.286,20.658 9.273,20.658 C6.765,20.658 4.389,19.47 2.805,17.259 L0,20.658 C2.013,23.595 5.445,25.212 9.24,25.212 Z M26.994,24.816 L26.994,0.429 L22.077,0.429 L22.077,24.816 L26.994,24.816 Z M43.725,25.179 C48.048,25.179 51.744,23.562 54.846,20.328 L54.846,10.296 L43.659,10.296 L43.659,14.553 L50.391,14.553 L50.391,17.886 C48.84,19.437 46.365,20.493 43.857,20.493 C41.58,20.493 39.699,19.734 38.214,18.216 C36.762,16.698 36.036,14.817 36.036,12.606 C36.036,10.329 36.795,8.448 38.28,6.963 C39.765,5.478 41.646,4.719 43.923,4.719 C46.53,4.719 48.741,5.643 50.556,7.458 L53.757,3.96 C51.546,1.617 47.883,0 43.923,0 C40.26,0 37.191,1.188 34.716,3.564 C32.241,5.94 31.02,8.976 31.02,12.639 C31.02,16.269 32.208,19.272 34.584,21.648 C36.993,23.991 40.029,25.179 43.725,25.179 Z M63.954,24.816 L63.954,10.989 L71.049,21.186 L72.732,21.186 L79.827,10.989 L79.827,24.816 L84.711,24.816 L84.711,0.429 L81.411,0.429 L71.94,14.256 L62.37,0.429 L59.136,0.429 L59.136,24.816 L63.954,24.816 Z M92.763,24.816 L94.644,19.536 L103.158,19.536 L104.973,24.816 L110.121,24.816 L100.947,0.429 L96.954,0.429 L87.648,24.816 L92.763,24.816 Z M101.772,15.18 L96.03,15.18 L98.934,7.062 L101.772,15.18 Z" id="SIGMA" fill="#000000" fill-rule="nonzero"></path>
        <path d="M116.743,14.816 L116.743,9.971 L118.909,9.971 C120.638,9.971 121.93,9.534 122.785,8.679 C123.64,7.805 124.077,6.722 124.077,5.411 C124.077,4.119 123.659,3.017 122.823,2.124 C122.006,1.231 120.771,0.775 119.118,0.775 L113.931,0.775 L113.931,14.816 L116.743,14.816 Z M119.004,7.425 L116.743,7.425 L116.743,3.378 L119.156,3.378 C120.429,3.378 121.208,4.252 121.208,5.373 C121.208,6.513 120.448,7.425 119.004,7.425 Z M128.884,14.816 L128.884,9.705 L130.556,9.705 L133.52,14.816 L136.807,14.816 L133.406,9.344 C135.306,8.66 136.256,7.045 136.256,5.221 C136.256,3.967 135.838,2.922 135.021,2.067 C134.204,1.212 133.007,0.775 131.449,0.775 L126.072,0.775 L126.072,14.816 L128.884,14.816 Z M131.183,7.178 L128.884,7.178 L128.884,3.378 L131.43,3.378 C132.646,3.378 133.368,4.195 133.368,5.259 C133.368,6.342 132.646,7.178 131.183,7.178 Z M145.376,15.044 C147.447,15.044 149.176,14.341 150.582,12.935 C152.007,11.529 152.71,9.819 152.71,7.805 C152.71,5.791 152.007,4.081 150.582,2.656 C149.176,1.231 147.447,0.528 145.395,0.528 C143.343,0.528 141.614,1.231 140.189,2.656 C138.783,4.081 138.08,5.81 138.08,7.843 C138.08,9.876 138.783,11.586 140.17,12.973 C141.557,14.36 143.305,15.044 145.376,15.044 Z M145.395,12.27 C144.16,12.27 143.115,11.852 142.26,10.997 C141.424,10.142 141.006,9.078 141.006,7.805 C141.006,6.532 141.424,5.449 142.279,4.594 C143.134,3.739 144.16,3.302 145.395,3.302 C146.63,3.302 147.656,3.739 148.511,4.594 C149.366,5.449 149.784,6.513 149.784,7.805 C149.803,9.078 149.385,10.142 148.53,10.997 C147.675,11.852 146.63,12.27 145.395,12.27 Z M160.386,14.816 C162.533,14.816 164.205,14.189 165.421,12.935 C166.656,11.681 167.264,9.971 167.264,7.824 C167.264,5.639 166.656,3.929 165.459,2.675 C164.262,1.402 162.609,0.775 160.5,0.775 L155.009,0.775 L155.009,14.816 L160.386,14.816 Z M160.519,12.118 L157.821,12.118 L157.821,3.473 L160.519,3.473 C161.735,3.473 162.666,3.891 163.331,4.708 C163.996,5.525 164.338,6.532 164.338,7.767 C164.338,9.021 163.996,10.066 163.331,10.883 C162.666,11.7 161.735,12.118 160.519,12.118 Z" id="PROD" fill="#000000" fill-rule="nonzero"></path>
    </g>
</svg>
